<svg id="Layer_1" enable-background="new 0 0 496 496" height="512" viewBox="0 0 496 496" width="512" xmlns="http://www.w3.org/2000/svg"><path d="m264.537 109.09c0 16.51-5.355 26.721-10.06 37.4-7.918 17.974-35.965 17.966-43.88 0-2.539-5.764-11.83-24.046-9.88-40.46 1.648-14.383 15.001-26.03 31.82-26.03 17.537 0 32 12.897 32 29.09z" fill="#f9cfac"/><path d="m264.357 106.03c-.953 13.597-5.235 21.916-9.88 32.46-7.918 17.974-35.965 17.966-43.88 0-4.771-10.83-8.9-18.838-9.88-32.46 2.748-23.994 35.296-34.944 54.45-17.51 5.05 4.58 8.41 10.7 9.19 17.51z" fill="#ffe4cc"/><path d="m264.537 109.09c0 4.921-.524 9.88-1.62 14.82-9.708-26.499-51.057-26.482-60.76 0-2.78-12.533-2.591-22.66 4.05-31.36 17.771-23.424 58.33-11.845 58.33 16.54z" fill="#6d6d6d"/><path d="m248.537 84.28h-32c0-12.91-.154-13.592.46-16.09 2.952-12.155 18.084-16.255 26.86-7.51 5.95 5.979 4.68 12.364 4.68 23.6z" fill="#6d6d6d"/><path d="m176.537 160c1.081 7.57 2.397 15.093 4.24 22.64 8.786 35.989 11.76 31.619 11.76 89.36h80c0-79.006 7.898-55.285 16-112-18.041 0-61.497 0-112 0z" fill="#b3cec9"/><path d="m184.537 160c4.468 31.277 11.34 38.577 12.974 63.328 1.215 18.405 16.581 32.672 35.026 32.672 18.349 0 33.805-14.173 35.026-32.672 1.66-25.143 8.337-30.867 12.974-63.328-35.763 0-60.12 0-96 0z" fill="#cae0dd"/><path d="m232.537 0v48c0 4.411-3.571 8-8 8l-48 48c22.263 42.274 23.99 42.316 23.99 56 .447 17.407-21.313 21.448-28.09 7.8l-25.59-51.17c-6.184-12.351-3.701-27.239 6-36.94l47.69-31.69 10.94-32.82c3.069-9.226 11.68-15.18 21.06-15.18z" fill="#f9cfac"/><path d="m228.537 8.849c0 38.001.738 37.84-1.838 40.204-8.502 7.806-43.382 41.237-43.382 41.237-3.188 3.188-5.404 7.208-6.397 11.579-.645 2.839-.443.976 20.577 41.931 2.161 4.211 2.797 8.831 2.973 13.596.086 2.327-1.552 4.613-3.203 6.264-7.154 7.127-19.243 5.205-23.76-3.86-27.995-56.177-28.752-55.346-28.962-64.799-.052-2.346 2.584-9.373 7.858-14.858.614-.639 46.613-31.132 46.502-31.058 2.325-1.545 1.626-1.03 12.572-33.905 1.484-4.456 4.316-8.306 8.159-11.047 3.724-2.655 8.901.143 8.901 4.716z" fill="#ffe4cc"/><path d="m318.227 116.63-25.59 51.17c-2.53 5.095-7.758 8.2-13.27 8.2-8.188 0-14.83-6.633-14.83-14.83 0-12.077 3.142-15.454 24-57.17l-48-48c-4.411 0-8-3.571-8-8v-48c9.381 0 17.992 5.955 21.06 15.18l10.94 32.82 47.69 31.69c9.697 9.697 12.187 24.584 6 36.94z" fill="#f9cfac"/><path d="m320.311 93.33c.898 3.09-.79 10.574-3.154 15.3l-25.59 51.17c-5.236 10.546-20.333 11.045-26.182.665-2.031-3.604 1.407-12.977 3.252-16.665 20.434-40.868 20.149-39.128 19.532-41.871-.986-4.387-3.183-8.477-6.412-11.639-46.078-45.112-45.22-41.744-45.22-45.428v-36.013c0-4.522 5.124-7.434 8.98-4.659 3.7 2.66 6.569 6.451 8.08 10.99 10.971 32.949 10.267 32.373 12.572 33.905l45.531 30.255c2.106 1.399 6.62 7.139 8.611 13.99z" fill="#ffe4cc"/><path d="m326.237 368h-37.7v-32l-56-16v112h-32.65c-8.421-62.408-16.863-101.086-7.35-160h80l68.78 48.15c20.935 14.63 10.646 47.85-15.08 47.85z" fill="#5fc68f"/><path d="m352.237 337.7v.02c-1.94 12.62-12.85 22.28-26 22.28h-13.7c-13.255 0-24-10.745-24-24 0-.1-1.197 0 32 0l-32-8-48.786-13.939c-3.615-1.033-7.214 1.682-7.214 5.442v87.076c0 9.622-7.8 17.421-17.421 17.421-8.708 0-16.097-6.435-17.265-15.092-7.624-56.5-13.802-84.339-5.314-136.908h80l68.78 48.15c5.741 4.012 9.77 10.242 10.92 17.55z" fill="#7adbae"/><path d="m232.537 432v48c0 8.837-7.163 16-16 16h-41.011c-4.089 0-6.989-4.161-5.391-7.926 2.644-6.231 7.895-10.445 13.922-11.954l21.08-5.27c-1.395-10.28-.354-2.587-5.25-38.85z" fill="#f9cfac"/><path d="m288.537 336v32h-32c-4.098 16.393-4.392 22.197-11.39 27.66-3.51 2.74-7.91 4.34-12.61 4.34v-48c0-8.837 7.163-16 16-16z" fill="#f9cfac"/><path d="m232.537 432v40c0 8.837-7.163 16-16 16h-31.053c-7.009 0-8.401-10.064-1.619-11.831 1.746-.455-6.023 1.505 21.271-5.319-1.4-10.319-.544-2.692-4.17-38.85z" fill="#ffe4cc"/><path d="m288.537 336c0 13.218-10.709 24-24 24h-8c-4.145 16.58-4.364 22.249-11.496 27.742-5.099 3.927-12.504.122-12.504-6.315v-29.427c0-8.837 7.163-16 16-16z" fill="#ffe4cc"/><g fill="#797a7a"><path d="m258.867 92.55c-12.776 4.597-39.879 4.599-52.66 0 12.687-16.722 39.967-16.73 52.66 0z"/><path d="m248.077 68.19c-8.945 5.081-22.131 5.083-31.08 0 3.948-16.256 27.188-16.069 31.08 0z"/></g></svg>