<svg id="Layer_1" enable-background="new 0 0 496 496" height="512" viewBox="0 0 496 496" width="512" xmlns="http://www.w3.org/2000/svg"><path d="m275.604 27.59v21.17h-55.18v-21.17c0-15.25 12.35-27.59 27.59-27.59 15.246 0 27.59 12.33 27.59 27.59z" fill="#6d6d6d"/><path d="m441.114 445.84c0 27.692-22.439 50.16-50.16 50.16h-285.88c-40.009 0-63.542-44.46-42.06-77.49 5.18-7.98 12.62-14.49 21.68-18.51l94.35-27.59h137.94l94.35 27.59c18.133 8.058 29.78 26.054 29.78 45.84z" fill="#5fc68f"/><path d="m440.754 439.87c-2.959 24.711-23.982 44.13-49.8 44.13-12.634 0-22.94-10.236-22.94-22.94v-20.9l16-8-98.996 14.142c-8.468 1.21-17.103-.192-24.753-4.017-13.855-6.927-27.308-6.597-39.057-.722-8.535 4.268-18.275 5.508-27.617 3.506l-97.577-20.909 32 16v20.9c0 12.669-10.271 22.94-22.94 22.94-25.764 0-46.831-19.364-49.8-44.13 2.079-17.447 13.216-32.68 29.42-39.87l94.35-27.59h137.94l94.35 27.59c16.27 7.23 27.34 22.47 29.42 39.87z" fill="#7adbae"/><g fill="#b3cec9"><path d="m341.274 199.29c-14.661 78.458-24.29 50.662-24.29 173.12h-137.94c0-123.016-9.467-93.793-24.29-173.12l38.36-17.43c14.916-3.379 18.848-2.55 87.23-2.55 7.67 0 15.26.85 22.66 2.51 42.094 18.887 37.749 16.805 38.27 17.47z"/><path d="m178.614 331.04-2.63-41.38c1.29 10.34 2.15 23.17 2.63 41.38z"/><path d="m320.044 289.66-2.63 41.38c.48-18.21 1.34-31.04 2.63-41.38z"/></g><path d="m328.014 196.449c-10.142 54.276-18.825 50.695-20.468 113.017-.538 20.512-17.023 35.488-36.082 35.488h-46.9c-19.581 0-35.569-15.619-36.075-35.193-1.616-62.558-10.453-59.68-20.475-113.312l32.906-14.952c12.793-2.898 16.161-2.187 74.827-2.187 6.579 0 13.09.729 19.438 2.153 36.115 16.205 32.382 14.415 32.829 14.986z" fill="#cae0dd"/><path d="m188.482 309.467-2.256-35.496c1.106 8.869 1.844 19.875 2.256 35.496z" fill="#cae0dd"/><path d="m309.803 273.97-2.256 35.496c.411-15.62 1.149-26.626 2.256-35.496z" fill="#cae0dd"/><path d="m382.894 331.04h-121.09c-7.605 0-13.79-6.164-13.79-13.8v-82.76c2.93-.21 5.59.08 8 .77 24 6.95 24 54.41 24 54.41h70.48c-18.617-23.703-21.712-27.648-53.96-68.73-11.959-11.959-8.263-31.932 6.47-39.11 13.208 2.928 26.255 8.619 37.91 17.01.561.717 64.811 81.056 65.91 82.43 15.866 19.843 1.877 49.78-23.93 49.78z" fill="#f9cfac"/><path d="m248.014 234.48v82.76c0 7.635-6.185 13.8-13.79 13.8h-121.09c-25.651 0-39.902-29.804-23.93-49.78l65.55-81.97c10.99-8.12 24.379-14.272 38.36-17.43 14.761 7.316 18.249 27.201 6.38 39.07-23.761 30.27-33.65 42.872-53.96 68.73h70.48s0-47.46 24-54.41c2.41-.69 5.07-.98 8-.77z" fill="#f9cfac"/><path d="m411.074 312.42c-5.38 4.75-12.44 7.62-20.18 7.62h-121.09c-7.605 0-13.79-6.164-13.79-13.8v-71.76c32-2.32 32 55.18 32 55.18h70.48c0-7.121-2.389-14.042-6.794-19.651-21.775-27.729-11.175-14.227-47.166-60.079-4.139-4.139-6.51-10.14-6.51-11.74 1.431-6.213 5.245-11.565 10.5-14.97 11.37 3.167 22.483 8.477 32.39 15.61.561.717 64.811 81.056 65.91 82.43 7.137 8.926 8.63 20.995 4.25 31.16z" fill="#ffe4cc"/><path d="m240.014 234.48v71.76c0 7.635-6.185 13.8-13.79 13.8h-121.09c-7.74 0-14.8-2.87-20.18-7.62-4.305-9.992-3.003-22.089 4.25-31.16 68.673-85.883 65.421-81.877 65.78-82.14 9.881-7.24 20.95-12.54 32.6-15.84 5.277 3.441 9.01 8.787 10.42 14.91-.99 4.31-3.16 8.39-6.51 11.74-.084.107-47.267 60.206-47.166 60.079-4.398 5.6-6.794 12.519-6.794 19.651h70.48s0-57.5 32-55.18z" fill="#ffe4cc"/><path d="m303.184 91.54c0 28.556-9.275 46.165-17.34 64.48-13.643 30.984-62.029 30.984-75.66 0l-7.1-16.11c-9.379-21.367-11.496-44.138-9.66-55.69 3.858-23.957 26.524-42.84 54.59-42.84 30.278 0 55.17 22.257 55.17 50.16z" fill="#f9cfac"/><path d="m302.604 84.21c-2.097 21.714-8.967 35.112-16.76 52.81-13.643 30.984-62.019 30.98-75.66 0-8.121-18.443-14.601-30.928-16.76-52.8 6.454-40.084 61.157-57.647 93.61-28.15 8.19 7.44 13.81 17.21 15.57 28.14z" fill="#ffe4cc"/><path d="m303.024 87.75c-54.7-22.71-55.34 39.51-110.07 8.94-.07-1.71-.11-3.43-.11-5.15 0-27.874 24.861-50.16 55.17-50.16 28.658 0 52.857 20.051 55.01 46.37z" fill="#6d6d6d"/><path d="m206.634 461.52c-30.544 15.272-33.486 15.605-37.87 22.48-2.25 3.52-3.51 7.66-3.51 12h-27.59v-51.72c24.238 6.058 46.209 11.55 68.97 17.24z" fill="#f9cfac"/><path d="m358.364 444.28v51.72h-193.11c0-8.542 4.881-16.231 12.34-19.96 34.89-17.445 25.395-12.093 42.94-23.79 14.279-9.508 34.7-3.612 40.41 13.55l.86 2.61z" fill="#f9cfac"/><path d="m190.634 457.52c-13.878 6.939-16.229 7.631-19.871 11.802-8.604 9.854-19.431 14.678-33.1 14.678v-39.72z" fill="#ffe4cc"/><path d="m358.364 444.28v39.72h-178.897c-4.327 0-5.967-5.912-1.872-7.96 34.89-17.445 25.395-12.093 42.94-23.79 14.279-9.508 34.7-3.612 40.41 13.55l.86 2.61z" fill="#ffe4cc"/><path d="m291.334 60.46c-16.441 13.854-65.856 15.887-89.39 3.46 20.714-28.456 65.945-30.635 89.39-3.46z" fill="#797a7a"/><path d="m275.604 28.65c-16.484 4.84-38.855 4.718-55.18-.62 0-25.542 30.026-36.976 47.11-19.96 5.316 5.337 8.07 12.008 8.07 20.58z" fill="#797a7a"/></svg>