<svg id="Layer_1" enable-background="new 0 0 496.01 496.01" height="512" viewBox="0 0 496.01 496.01" width="512" xmlns="http://www.w3.org/2000/svg"><path d="m308.158 319.469c0 50.436-57.686 54.389-162.5 109.57l-12.15-31.35c86.097-71.19 72.042-63.074 107.39-86.63 70.71 8.838 61.053 7.629 67.26 8.41z" fill="#5fc68f"/><path d="m303.788 318.919c-8.663 36.486-58.401 45.709-142.566 87.616-9.977 4.968-22.124.316-26.174-10.136 95.86-80.59 80.76-68.62 105.85-85.34z" fill="#7adbae"/><path d="m115.514 486.63c.855 4.912-2.944 9.41-7.93 9.379-10.053-.064-19.514-6.174-23.365-16.108-3.745-9.662-1.711-4.413-10.31-26.62-1.839-4.75-1.39-9.92.94-14.16 2.686-4.945 1.275-3.148 58.66-41.43 9.597 24.748 6.915 17.827 12.15 31.35-37.366 23.796-31.911 20.321-36.16 23.03.05.289 6.033 34.665 6.015 34.559z" fill="#f9cfac"/><path d="m109.498 452.07 3.512 20.173c.968 5.559-3.978 10.386-9.498 9.215-8.05-1.709-15.101-7.321-18.294-15.558-5.372-13.86-8.47-21.866-8.42-21.739-1.459-3.768.094-8.692 3.45-10.941 2.313-1.551-12.866 8.583 53.26-35.53l8 20.63-19.171 12.21c-7.448 4.743-12.21 12.733-12.839 21.54z" fill="#ffe4cc"/><path d="m415.228 496.01h-43.5c-10.94 0-18.973-10.281-16.32-20.89 4.367-17.463 1.79-.423 12.43-93.69-39.97-3.63-53.88-3.25-76.5-3.11-9.267.054-25.951-4.441-33.62-8.41-20.85-10.79-25.22-42.04-16.82-58.85 9.234 1.156-2.491-.31 67.26 8.41 59.32 14.56 35.31 4.51 81.36 20.49.05.01.08.03.12.04 13.68 4.76 21.722 18.94 18.8 33.12-4.083 19.816-12.707 61.624-19.95 96.73 21.587 5.405 27.415 5.55 33.18 13.41 3.879 5.275.131 12.75-6.44 12.75z" fill="#f9cfac"/><path d="m423.098 486.51h-41.87c-10.94 0-18.973-10.281-16.32-20.89 4.367-17.463 1.79-.423 12.43-93.69-39.97-3.63-53.88-3.25-76.5-3.11-9.267.054-25.951-4.441-33.62-8.41-17.1-8.85-23.11-31.45-20.09-48.57l61.03 7.63c59.32 14.56 35.31 4.51 81.36 20.49.05.01.08.03.12.04 13.68 4.76 21.722 18.94 18.8 33.12-15.502 75.23-12.884 62.482-19.95 96.73l21.05 5.27c6.47 1.614 12.719 6.901 13.56 11.39z" fill="#ffe4cc"/><path d="m408.438 373.119c-3.613 17.515-1.104 5.358-9.74 47.23h-35.3c1.672-14.635.789-6.895 4.44-38.92-38.461-3.277-45.76-3.303-76.5-3.11-9.23.06-25.91-4.42-33.62-8.41-20.392-10.548-25.457-41.484-16.82-58.85l67.26 8.41c59.32 14.56 35.31 4.51 81.36 20.49.05.01.08.03.12.04 13.716 4.769 21.715 18.992 18.8 33.12z" fill="#5fc68f"/><path d="m390.842 340.448c11.757 4.678 18.199 17.409 15.644 29.802l-.977 4.739c-3.945 19.13-20.796 33.02-40.525 33.02-.251 0-.508 2.924 2.855-26.58-.337-.029-5.502-12.906-17.829-13.829-26.974-2.021-39.787-1.737-58.671-1.62-9.23.06-25.91-4.42-33.62-8.41-12.38-6.41-18.95-20.03-20.48-33.55.56-4.78 1.8-9.22 3.66-12.96l67.26 8.41c59.32 14.56 35.31 4.51 81.36 20.49.102.02 1.023.368 1.323.488z" fill="#7adbae"/><path d="m294.917 101.219c-6.915 12.568-20.548 21.121-36.248 21.121-13.267 24.97-9.111 15.98-18.559 39.429-4.477-4.308-8.184-9.374-10.906-14.986-4.768-9.857-5.118-17.383-5.118-26.744 3.663-1.832 6.788-5.164 8.291-9.416 5.062-14.32 5.722-15.05 5.443-19.787 18.347-14.748 45.863-9.417 57.097 10.383z" fill="#6d6d6d"/><path d="m299.748 155.969c0 11.61-9.68 21.01-21.62 21.01-14.032 0-27.546-5.21-38.018-15.211 9.348-23.206 5.085-14.054 18.559-39.429 15.7 0 29.328-8.551 36.248-21.121 6.287 10.895 4.831 16.802 4.831 54.751z" fill="#f9cfac"/><path d="m299.308 113.59v33.38c0 10.79-8.37 19.68-19.14 20.87v-51.4c6.19-3.7 11.298-8.96 14.749-15.221 2.17 3.76 3.691 7.931 4.391 12.371z" fill="#ffe4cc"/><path d="m237.874 92.233c0 3.761-.81 5.133-5.496 18.39-1.507 4.262-4.639 7.589-8.291 9.416-13.676 7.033-29.357-5.969-24.275-20.355l4.55-12.925c6.301-17.835 33.512-13.419 33.512 5.474z" fill="#6d6d6d"/><path d="m308.158 319.469-67.26-8.41c-.081-.863-10.589-112.809-10.85-113.33-.53-5.22 1.81-10.37 6.14-13.33 6.278-4.282 11.83-10.42 13.83-13.76.714.465.043.169 2.72 2.4 15.818 13.255 63.82 39.018 63.82 70.77 0 16.811-23.312 51.266-8.4 75.66z" fill="#b3cec9"/><path d="m304.418 310.63c-30.452-3.809-54.542-28.235-57.482-59.226-3.238-34.129-5.819-60.537-5.888-60.674-.53-5.22 1.81-10.37 6.14-13.33 1.95-1.33 3.8-2.79 5.55-4.36 15.818 13.255 63.82 39.018 63.82 70.77 0 14.859-18.23 43.55-12.14 66.82z" fill="#cae0dd"/><path d="m271.168 17.25v167.27c0 6.66-3.78 12.63-9.38 15.47-10.901 5.561-24.25-2.422-24.25-15.03v-127.541c0-17.744-7.99-18.323-7.99-27.64 0-5.27 2.87-10.4 7.99-12.96 0-10.551 9.589-18.424 19.79-16.54 7.92 1.461 13.84 8.64 13.84 16.971z" fill="#f9cfac"/><path d="m271.168 17.25v167.27c0 6.66-3.78 12.63-9.38 15.47-7.834-1.449-13.75-8.275-13.75-16.53v-127.541c0-17.744-7.99-18.323-7.99-27.64 0-5.27 2.87-10.4 7.99-12.96 0-6.538 3.763-12.293 9.29-15.04 7.92 1.461 13.84 8.64 13.84 16.971z" fill="#ffe4cc"/></svg>